<?xml version="1.0" encoding="UTF-8"?>
<svg id="Layer_1_copy_2" data-name="Layer 1 copy 2" xmlns="http://www.w3.org/2000/svg" viewBox="0 0 3000.5 3000.5">
  <defs>
    <style>
      .cls-1 {
        fill: #fff;
      }
    </style>
  </defs>
  <polygon class="cls-1" points="2740.25 1366.06 2740.25 1481.07 2441.13 1481.07 2441.13 810.08 2556.14 810.08 2556.14 1366.06 2740.25 1366.06"/>
  <path class="cls-1" d="M2589.81,1703.13v303.51c0,63.56-15.99,111.44-47.52,142.31-31.47,30.82-76.84,46.44-134.85,46.44h-140.45v-670.98h148.65c56.35,0,99.98,15.87,129.67,47.18,29.53,31.16,44.5,75.41,44.5,131.54h0ZM2474.8,2015.76v-312.63c0-22.97-4.49-40.7-13.34-52.69-8.1-10.94-24.13-16.49-47.65-16.49h-31.81v451.9h31.81c22.6,0,38.46-5.26,47.15-15.65,9.18-10.96,13.84-29.28,13.84-54.44h0Z"/>
  <path class="cls-1" d="M2270.49,810.08l149.84,670.99h-115.79l-27.34-139.45h-108.55l-27.34,139.45h-115.79l149.84-670.99h95.13ZM2255.59,1232.07l-33.12-170.89-33.12,170.89h66.24Z"/>
  <polygon class="cls-1" points="2228.89 2080.38 2228.89 2195.39 1929.77 2195.39 1929.77 1524.41 2228.89 1524.41 2228.89 1633.95 2044.78 1633.95 2044.78 1802.39 2205.19 1802.39 2205.19 1911.94 2044.78 1911.94 2044.78 2080.38 2228.89 2080.38"/>
  <path class="cls-1" d="M2016.58,1199.05v126.08c0,21.44-4.13,42.05-12.27,61.26-8.09,19.08-19.4,36.29-33.63,51.17-14.25,14.91-31.18,26.91-50.31,35.67-19.3,8.83-40.32,13.3-62.47,13.3-18.48,0-37.53-2.57-56.61-7.66-19.71-5.25-37.69-14.57-53.44-27.7-15.71-13.09-28.78-30.1-38.83-50.54-10.13-20.55-15.26-46.88-15.26-78.24v-357.28c0-22.57,3.94-43.88,11.72-63.34,7.82-19.53,19.06-36.72,33.43-51.09,14.33-14.33,31.65-25.72,51.46-33.85,19.79-8.11,41.9-12.22,65.71-12.22,46.66,0,85.22,15.56,114.6,46.24,14.29,14.96,25.64,32.87,33.72,53.23s12.18,42.73,12.18,66.5v47.48h-115.02v-42.01c0-15.86-4.31-29.16-13.19-40.66-8.21-10.61-19.07-15.77-33.2-15.77-28.02,0-34.25,11.72-36.3,15.58-6.7,12.59-10.1,29.09-10.1,49.05v331.76c0,16.6,3.55,30.54,10.55,41.43,6.09,9.48,17.52,14.08,34.93,14.08,4.98,0,10.49-.91,16.38-2.71,5.55-1.68,10.82-4.49,15.7-8.36,4.14-3.74,7.72-9.11,10.66-15.97,3.04-7.08,4.57-16.35,4.57-27.56v-117.87h115.02,0Z"/>
  <path class="cls-1" d="M1864.32,1703.13v303.51c0,63.56-15.99,111.44-47.52,142.31-31.47,30.82-76.84,46.44-134.86,46.44h-140.44v-670.98h148.65c56.35,0,99.98,15.87,129.67,47.18,29.53,31.16,44.5,75.41,44.5,131.54h0ZM1749.31,2015.76v-312.63c0-22.97-4.49-40.7-13.34-52.69-8.1-10.94-24.13-16.49-47.65-16.49h-31.81v451.9h31.81c22.6,0,38.46-5.26,47.15-15.65,9.18-10.96,13.84-29.28,13.84-54.44h0Z"/>
  <polygon class="cls-1" points="1631.04 810.08 1631.04 1481.07 1516.03 1481.07 1516.03 913.69 1631.04 810.08"/>
  <polygon class="cls-1" points="1494.34 810.08 1494.34 919.62 1386.79 919.62 1386.79 1481.07 1271.78 1481.07 1271.78 919.62 1164.23 919.62 1164.23 810.08 1494.34 810.08"/>
  <polygon class="cls-1" points="1479.71 1524.41 1479.71 2195.39 1373.47 2195.39 1248.2 1851.71 1248.2 2195.39 1133.19 2195.39 1133.19 1524.41 1241.29 1524.41 1364.69 1868.18 1364.69 1524.41 1479.71 1524.41"/>
  <polygon class="cls-1" points="1142.53 810.08 1142.53 1481.07 1027.52 1481.07 1027.52 913.69 1142.53 810.08"/>
  <polygon class="cls-1" points="1068.65 1524.41 1068.65 2195.39 953.64 2195.39 953.64 1628.02 1068.65 1524.41"/>
  <path class="cls-1" d="M894.2,1178.82l102.3,302.25h-121.91l-86.59-277.08h-36.47v277.08h-115.01v-670.99h160.5c57.78,0,101.99,17.31,131.39,51.45,28.99,33.66,43.69,84.15,43.69,150.06,0,39.66-6.3,73.97-18.72,101.99-11.68,26.37-31.57,48.28-59.18,65.24h0ZM857.09,1009.77c0-15.8-.88-29.83-2.62-41.7-1.59-10.82-4.72-20.24-9.32-28-9.38-13.57-28.33-20.45-56.33-20.45h-37.29v180.3h41.84c14.7,0,26.31-1.95,34.52-5.8,7.79-3.65,13.69-8.67,18.03-15.33,4.08-7.23,6.96-16.42,8.55-27.32,1.74-11.86,2.62-25.89,2.62-41.7h0Z"/>
  <polygon class="cls-1" points="885.46 1524.41 885.46 2195.39 770.44 2195.39 770.44 1852.76 695.56 2079.64 633.11 2079.64 559.16 1853.36 559.16 2195.39 444.15 2195.39 444.15 1524.41 552.33 1524.41 664.77 1847.97 776.34 1524.41 885.46 1524.41"/>
  <path class="cls-1" d="M582.92,1199.05v126.08c0,21.44-4.13,42.05-12.27,61.26-8.09,19.08-19.4,36.29-33.62,51.17-14.26,14.91-31.19,26.91-50.32,35.67-19.3,8.83-40.31,13.3-62.46,13.3-18.49,0-37.53-2.57-56.62-7.66-19.71-5.25-37.68-14.57-53.44-27.7-15.71-13.09-28.77-30.1-38.83-50.54-10.12-20.56-15.26-46.88-15.26-78.24v-357.28c0-22.58,3.95-43.89,11.73-63.34,7.81-19.53,19.06-36.72,33.43-51.09,14.33-14.33,31.64-25.72,51.46-33.85,19.79-8.11,41.89-12.22,65.7-12.22,46.66,0,85.22,15.56,114.6,46.24,14.29,14.96,25.64,32.87,33.73,53.22,8.07,20.37,12.17,42.74,12.17,66.51v47.48h-115.01v-42.01c0-15.86-4.32-29.16-13.2-40.66-8.21-10.61-19.07-15.77-33.2-15.77-28.01,0-34.25,11.72-36.29,15.58-6.71,12.59-10.11,29.09-10.11,49.05v331.76c0,16.6,3.55,30.54,10.56,41.43,6.09,9.48,17.51,14.08,34.93,14.08,4.98,0,10.49-.91,16.38-2.71,5.54-1.68,10.82-4.5,15.69-8.36,4.14-3.74,7.72-9.11,10.66-15.97,3.04-7.08,4.58-16.35,4.58-27.56v-117.87h115.01Z"/>
</svg>