<?xml version="1.0" encoding="UTF-8"?>
<svg id="Layer_1" xmlns="http://www.w3.org/2000/svg" version="1.1" viewBox="0 0 1884.4 251.1">
  <!-- Generator: Adobe Illustrator 29.1.0, SVG Export Plug-In . SVG Version: 2.1.0 Build 142)  -->
  <defs>
    <style>
      .st0 {
        fill: #fff;
      }
    </style>
  </defs>
  <path id="Path_39" class="st0" d="M78.8,209.2c-8.6,0-15.8-1-21.4-2.9-5.2-1.7-9.9-4.4-13.9-8.1-3.2-3.4-5.6-7.4-7.2-11.7-1.7-4.6-2.6-10.5-2.6-17.8v-86.1c0-7.2.9-13.2,2.6-17.9,1.5-4.3,4-8.3,7.2-11.6,3.9-3.8,8.7-6.6,13.9-8.3,5.6-1.9,12.8-2.8,21.4-2.8s15.8.9,21.5,2.8c5.2,1.6,9.9,4.4,13.8,8.3,3.3,3.2,5.8,7.2,7.3,11.6,1.7,4.7,2.5,10.6,2.5,17.9v18h-33.9v-22.2c0-2.2-.2-4.4-.8-6.6-.4-1.4-1.1-2.6-2.1-3.7-2.2-2.2-5.3-3.3-8.4-3.1-3.1-.2-6.1,1-8.4,3.1-1,1.1-1.7,2.3-2.1,3.7-.6,2.1-.9,4.4-.8,6.6v94.5c0,2.2.2,4.4.8,6.6.4,1.4,1.1,2.6,2.1,3.7,2.2,2.1,5.3,3.3,8.4,3.1,3.1.1,6.1-1,8.4-3.1,1-1.1,1.7-2.3,2.1-3.7.6-2.1.9-4.4.8-6.6v-27.2h33.9v23c0,7.2-.8,13.2-2.5,17.8-1.5,4.4-4,8.4-7.3,11.7-3.9,3.7-8.6,6.5-13.8,8.1-5.7,1.9-12.9,2.9-21.5,2.9h0ZM126,208.3V42.8h55.6c6.8,0,12.3.7,16.4,2.1,3.8,1.2,7.3,3.4,10.1,6.3,2.8,2.8,4.8,6.2,6.1,9.9,1.4,4,2.1,9.3,2.1,16v12.3c0,6.7-.7,12-2.1,16-1.2,3.7-3.3,7.1-6.1,9.9-1.4,1.4-2.9,2.6-4.5,3.6-1.8,1-3.6,1.9-5.5,2.5,6.1,1.8,11.2,5.8,14.4,11.3,1.4,2.3,2.3,4.9,2.8,7.5.7,3.9,1,7.9.9,11.9v56.2h-33.9v-59.4c0-2.2-.2-4.4-.8-6.6-.4-1.4-1.1-2.6-2.1-3.7-1.1-1.1-2.4-1.8-3.9-2.3-2.1-.6-4.4-.9-6.6-.8h-9.2v72.7h-33.9ZM159.9,108h9.2c5.2,0,8.6-1,10.4-3.1,1-1.3,1.7-2.7,2.1-4.3.6-2.5.9-5.1.8-7.6v-9.2c0-2.2-.2-4.4-.8-6.6-.4-1.4-1.1-2.6-2.1-3.7-1.1-1.1-2.4-1.8-3.9-2.3-2.1-.6-4.4-.9-6.6-.8h-9.2v37.6h0ZM218.4,208.3V42.8h33.9v165.5h-33.9ZM282.6,208.3V70.4h-28.2v-27.6h90.3v27.6h-28.2v137.9h-33.9ZM346.7,208.3V42.8h33.9v165.5h-33.9ZM427.8,209.2c-8.6,0-15.8-1-21.4-2.9-5.2-1.7-9.9-4.4-13.9-8.1-3.2-3.4-5.6-7.4-7.2-11.7-1.7-4.6-2.6-10.5-2.6-17.8v-86.1c0-7.2.9-13.2,2.6-17.9,1.5-4.3,4-8.3,7.2-11.6,3.9-3.8,8.7-6.6,13.9-8.3,5.6-1.9,12.8-2.8,21.4-2.8s15.8.9,21.5,2.8c5.2,1.6,10,4.4,13.8,8.3,3.3,3.2,5.8,7.2,7.3,11.6,1.7,4.7,2.5,10.6,2.5,17.9v18h-33.9v-22.2c0-2.2-.2-4.4-.8-6.6-.4-1.4-1.1-2.6-2.1-3.7-4.8-4.2-11.9-4.2-16.7,0-1,1.1-1.7,2.3-2.1,3.7-.6,2.1-.9,4.4-.8,6.6v94.5c0,2.2.2,4.4.8,6.6.4,1.4,1.1,2.6,2.1,3.7,4.8,4.2,11.9,4.2,16.7,0,1-1.1,1.7-2.3,2.1-3.7.6-2.1.9-4.4.8-6.6v-27.2h33.9v23c0,7.2-.8,13.2-2.5,17.8-1.5,4.4-4,8.4-7.3,11.7-3.9,3.7-8.6,6.5-13.8,8.1-5.7,1.9-12.9,2.9-21.5,2.9h0ZM469.8,208.3l22.8-165.5h52l22.6,165.5h-34.1l-4-29.9h-23.4l-4,29.9h-32,0ZM508.3,151.9h18.4l-9.2-80.9-9.2,80.9h0ZM568.3,208.3V42.8h33.9v137.9h42.6v27.6h-76.5ZM667.3,208.3V42.8h54.1l14.4,88.6,14.4-88.6h54.5v165.5h-33.8v-124.8l-20.1,124.8h-32.8l-20.5-124.8v124.8h-30.3ZM806.9,208.3V42.8h33.9v165.5h-33.9ZM842.9,208.3V42.8h41.8l22.6,80.9V42.8h29.7v165.5h-37.6l-26.8-96.1v96.1h-29.7ZM939,208.3V42.8h51.6c7.4,0,13.3.8,17.9,2.4,8.8,2.9,15.6,9.7,18.4,18.5,1.6,4.6,2.4,10.5,2.4,17.8v88.2c0,7.2-.8,13.2-2.4,17.8-2.8,8.8-9.7,15.6-18.4,18.5-4.5,1.6-10.5,2.4-17.9,2.4h-51.6,0ZM973.1,180.8h9.2c5.2,0,8.6-1,10.5-3.1,1-1.3,1.7-2.7,2.1-4.3.6-2.5.9-5.1.8-7.6v-81.9c0-2.2-.2-4.4-.8-6.6-.4-1.4-1.1-2.6-2.1-3.7-1.1-1.1-2.4-1.8-3.9-2.3-2.1-.6-4.4-.9-6.6-.8h-9.2v110.3h0ZM1031.4,208.3V42.8h76.5v27.6h-42.6v37.6h42.6v27.6h-42.6v45.1h42.6v27.6h-76.5ZM1110,208.3V42.8h51.6c7.4,0,13.3.8,17.9,2.4,8.8,2.9,15.6,9.7,18.4,18.5,1.6,4.6,2.4,10.5,2.4,17.8v88.2c0,7.2-.8,13.2-2.4,17.8-2.8,8.8-9.7,15.6-18.4,18.5-4.5,1.6-10.5,2.4-17.9,2.4h-51.6ZM1144.1,180.8h9.2c5.2,0,8.6-1,10.4-3.1,1-1.3,1.7-2.7,2.1-4.3.6-2.5.9-5.1.8-7.6v-81.9c0-2.2-.2-4.4-.8-6.6-.4-1.4-1.1-2.6-2.1-3.7-1.1-1.1-2.4-1.8-3.9-2.3-2.1-.6-4.4-.9-6.6-.8h-9.2v110.3h0ZM1222.9,208.3V42.8h55.6c6.8,0,12.3.7,16.4,2.1,3.8,1.2,7.3,3.4,10.1,6.3,2.8,2.8,4.8,6.2,6.1,9.9,1.4,4,2.1,9.3,2.1,16v12.3c0,6.7-.7,12-2.1,16-1.2,3.7-3.3,7.1-6.1,9.9-1.3,1.4-2.9,2.6-4.5,3.6-1.8,1-3.6,1.9-5.5,2.5,6.1,1.8,11.2,5.8,14.4,11.3,1.3,2.3,2.3,4.9,2.8,7.5.7,3.9,1,7.9.9,11.9v56.2h-33.9v-59.4c0-2.2-.2-4.4-.8-6.6-.4-1.4-1.1-2.6-2.1-3.7-1.1-1.1-2.4-1.8-3.9-2.3-2.1-.6-4.4-.9-6.6-.8h-9.2v72.7h-33.9ZM1256.7,108h9.2c5.2,0,8.6-1,10.4-3.1,1-1.3,1.7-2.7,2.1-4.3.6-2.5.9-5.1.8-7.6v-9.2c0-2.2-.2-4.4-.8-6.6-.4-1.4-1.1-2.6-2.1-3.7-1.1-1.1-2.4-1.8-3.9-2.3-2.1-.6-4.4-.9-6.6-.8h-9.2v37.6h0ZM1315.2,208.3V42.8h76.5v27.6h-42.6v37.6h42.6v27.6h-42.6v45.1h42.6v27.6h-76.5ZM1393.8,208.3V42.8h55.6c6.8,0,12.3.7,16.4,2.1,3.8,1.2,7.3,3.4,10.1,6.3,2.8,2.8,4.8,6.2,6.1,9.9,1.4,4,2.1,9.3,2.1,16v41.4c0,6.7-.7,12-2.1,16-1.2,3.7-3.3,7.1-6.1,9.9-2.9,2.8-6.3,4.9-10.1,6.2-4.1,1.5-9.6,2.2-16.4,2.2h-21.7v55.6h-33.9,0ZM1427.7,125.2h9.2c5.2,0,8.6-1,10.4-3.1,1-1.3,1.7-2.7,2.1-4.3.6-2.5.9-5.1.8-7.6v-26.3c0-2.2-.2-4.4-.8-6.6-.4-1.4-1.1-2.6-2.1-3.7-1.1-1.1-2.4-1.8-3.9-2.3-2.1-.6-4.4-.9-6.6-.8h-9.2v54.8ZM1531.3,209.2c-8.6,0-15.8-1-21.4-2.9-5.2-1.7-9.9-4.4-13.9-8.1-3.2-3.4-5.6-7.4-7.2-11.7-1.7-4.6-2.6-10.5-2.6-17.8v-86.1c0-7.2.9-13.2,2.6-17.9,1.5-4.3,4-8.3,7.2-11.6,3.9-3.8,8.7-6.6,13.9-8.3,5.6-1.9,12.8-2.8,21.4-2.8s15.8.9,21.5,2.8c5.2,1.6,9.9,4.4,13.8,8.3,3.3,3.2,5.8,7.2,7.3,11.6,1.7,4.7,2.5,10.6,2.5,17.9v86.1c0,7.2-.8,13.2-2.5,17.8-1.5,4.4-4,8.4-7.3,11.7-3.9,3.7-8.6,6.5-13.8,8.1-5.7,1.9-12.9,2.9-21.5,2.9ZM1531.3,186.2c3.1.1,6.1-1,8.4-3.1,1-1.1,1.7-2.3,2.1-3.7.6-2.1.9-4.4.8-6.6v-94.5c0-2.2-.2-4.4-.8-6.6-.4-1.4-1.1-2.6-2.1-3.7-4.8-4.2-11.9-4.2-16.7,0-1,1.1-1.7,2.3-2.1,3.7-.6,2.1-.9,4.4-.8,6.6v94.5c0,2.2.2,4.4.8,6.6.4,1.4,1.1,2.6,2.1,3.7,2.2,2.1,5.3,3.3,8.4,3.1ZM1578.6,208.3V42.8h55.6c6.8,0,12.3.7,16.4,2.1,3.8,1.2,7.3,3.4,10.1,6.3,2.8,2.8,4.8,6.2,6.1,9.9,1.4,4,2.1,9.3,2.1,16v12.3c0,6.7-.7,12-2.1,16-1.2,3.7-3.3,7.1-6.1,9.9-1.3,1.4-2.9,2.6-4.5,3.6-1.8,1-3.6,1.9-5.5,2.5,6.1,1.8,11.2,5.8,14.4,11.3,1.3,2.3,2.3,4.9,2.8,7.5.7,3.9,1,7.9.9,11.9v56.2h-33.9v-59.4c0-2.2-.2-4.4-.8-6.6-.4-1.4-1.1-2.6-2.1-3.7-1.1-1.1-2.4-1.8-3.9-2.3-2.1-.6-4.4-.9-6.6-.8h-9.2v72.7h-33.9ZM1612.4,108h9.2c5.2,0,8.6-1,10.4-3.1,1-1.3,1.7-2.7,2.1-4.3.6-2.5.9-5.1.8-7.6v-9.2c0-2.2-.2-4.4-.8-6.6-.4-1.4-1.1-2.6-2.1-3.7-1.1-1.1-2.4-1.8-3.9-2.3-2.1-.6-4.4-.9-6.6-.8h-9.2v37.6h0ZM1698.3,208.3V70.4h-28.2v-27.6h90.3v27.6h-28.2v137.9h-33.9ZM1805.3,209.2c-15.9,0-27.5-3.4-34.9-10.2-3.4-3.4-5.9-7.5-7.4-12-1.9-5.8-2.8-11.8-2.6-17.9v-23.4h33.9v25.5c0,8.4,3.7,12.5,11.1,12.5s11.1-4,11.1-11.9c0-4.2-1-8.3-3-11.9-2.2-3.9-4.9-7.6-7.8-11.1l-27.4-32c-3.2-3.7-6.2-7.5-9-11.5-2.5-3.6-4.5-7.6-5.8-11.8-1.5-4.8-2.2-9.7-2.1-14.7,0-5.6,1.1-11.2,3.3-16.4,2.2-4.9,5.5-9.1,9.8-12.2,3.9-2.8,8.3-4.9,13-6.1,6-1.5,12.2-2.2,18.4-2.1,6.4,0,12.7.6,18.9,2,4.9,1.1,9.5,3.4,13.3,6.8,3.8,3.3,6.9,7.5,8.8,12.2,2.2,5.7,3.3,11.8,3.1,17.9v19.7h-33.9v-21.7c0-3.8-.9-6.6-2.7-8.5-2-2-4.7-3-7.5-2.8-2.7-.1-5.3.8-7.4,2.5-1.9,1.7-2.9,4.2-2.8,6.7,0,3.3,1.1,6.5,2.8,9.3,2.6,4.1,5.5,8.1,8.7,11.8l25.9,30.3c5.1,5.6,9.4,11.9,12.8,18.6,3.3,6.4,4.9,13.9,4.9,22.4.2,6-.9,11.9-3,17.4-1.9,4.7-4.9,8.9-8.7,12.2-4.2,3.5-9,6.1-14.2,7.7-6.3,1.9-12.9,2.8-19.4,2.7h0Z"/>
</svg>